<svg width="1440" height="1024" viewBox="0 0 1440 1024" fill="none" xmlns="http://www.w3.org/2000/svg">
<g clip-path="url(#clip0)">
<path d="M0 93L26.7429 87.8C53.4857 82.7 106.971 72.3 160.251 72.3C213.634 72.3 266.709 82.7 320.091 91.3C373.371 100 426.857 107 480.137 100.2C533.52 93.3 586.594 72.7 639.977 72.7C693.257 72.7 746.743 93.3 800.023 91.7C853.406 90 906.48 66 959.863 62.5C1013.14 59 1066.63 76 1119.91 84.5C1173.29 93 1226.37 93 1279.75 89.7C1333.03 86.3 1386.51 79.7 1413.26 76.3L1440 73V0H1413.26C1386.51 0 1333.03 0 1279.75 0C1226.37 0 1173.29 0 1119.91 0C1066.63 0 1013.14 0 959.863 0C906.48 0 853.406 0 800.023 0C746.743 0 693.257 0 639.977 0C586.594 0 533.52 0 480.137 0C426.857 0 373.371 0 320.091 0C266.709 0 213.634 0 160.251 0C106.971 0 53.4857 0 26.7429 0H0V93Z" fill="#6198FF"/>
<path d="M0 257L26.7429 251.8C53.4857 246.7 106.971 236.3 160.251 238C213.634 239.7 266.709 253.3 320.091 253.3C373.371 253.3 426.857 239.7 480.137 217.5C533.52 195.3 586.594 164.7 639.977 161.3C693.257 158 746.743 182 800.023 182C853.406 182 906.48 158 959.863 159.7C1013.14 161.3 1066.63 188.7 1119.91 209.2C1173.29 229.7 1226.37 243.3 1279.75 241.7C1333.03 240 1386.51 223 1413.26 214.5L1440 206V71L1413.26 74.3C1386.51 77.7 1333.03 84.3 1279.75 87.7C1226.37 91 1173.29 91 1119.91 82.5C1066.63 74 1013.14 57 959.863 60.5C906.48 64 853.406 88 800.023 89.7C746.743 91.3 693.257 70.7 639.977 70.7C586.594 70.7 533.52 91.3 480.137 98.2C426.857 105 373.371 98 320.091 89.3C266.709 80.7 213.634 70.3 160.251 70.3C106.971 70.3 53.4857 80.7 26.7429 85.8L0 91V257Z" fill="#4988FF"/>
<path d="M0 329L26.7429 325.5C53.4857 322 106.971 315 160.251 325.2C213.634 335.3 266.709 362.7 320.091 369.5C373.371 376.3 426.857 362.7 480.137 335.3C533.52 308 586.594 267 639.977 263.7C693.257 260.3 746.743 294.7 800.023 305C853.406 315.3 906.48 301.7 959.863 294.8C1013.14 288 1066.63 288 1119.91 306.7C1173.29 325.3 1226.37 362.7 1279.75 366C1333.03 369.3 1386.51 338.7 1413.26 323.3L1440 308V204L1413.26 212.5C1386.51 221 1333.03 238 1279.75 239.7C1226.37 241.3 1173.29 227.7 1119.91 207.2C1066.63 186.7 1013.14 159.3 959.863 157.7C906.48 156 853.406 180 800.023 180C746.743 180 693.257 156 639.977 159.3C586.594 162.7 533.52 193.3 480.137 215.5C426.857 237.7 373.371 251.3 320.091 251.3C266.709 251.3 213.634 237.7 160.251 236C106.971 234.3 53.4857 244.7 26.7429 249.8L0 255V329Z" fill="#2D77FF"/>
<path d="M0 595L26.7429 578C53.4857 561 106.971 527 160.251 518.5C213.634 510 266.709 527 320.091 533.7C373.371 540.3 426.857 536.7 480.137 526.3C533.52 516 586.594 499 639.977 505.8C693.257 512.7 746.743 543.3 800.023 563.8C853.406 584.3 906.48 594.7 959.863 606.7C1013.14 618.7 1066.63 632.3 1119.91 630.7C1173.29 629 1226.37 612 1279.75 601.8C1333.03 591.7 1386.51 588.3 1413.26 586.7L1440 585V306L1413.26 321.3C1386.51 336.7 1333.03 367.3 1279.75 364C1226.37 360.7 1173.29 323.3 1119.91 304.7C1066.63 286 1013.14 286 959.863 292.8C906.48 299.7 853.406 313.3 800.023 303C746.743 292.7 693.257 258.3 639.977 261.7C586.594 265 533.52 306 480.137 333.3C426.857 360.7 373.371 374.3 320.091 367.5C266.709 360.7 213.634 333.3 160.251 323.2C106.971 313 53.4857 320 26.7429 323.5L0 327V595Z" fill="#0066FF"/>
<path d="M0 646L26.7429 639.2C53.4857 632.3 106.971 618.7 160.251 608.5C213.634 598.3 266.709 591.7 320.091 588.3C373.371 585 426.857 585 480.137 576.3C533.52 567.7 586.594 550.3 639.977 560.5C693.257 570.7 746.743 608.3 800.023 635.7C853.406 663 906.48 680 959.863 698.8C1013.14 717.7 1066.63 738.3 1119.91 729.8C1173.29 721.3 1226.37 683.7 1279.75 666.5C1333.03 649.3 1386.51 652.7 1413.26 654.3L1440 656V583L1413.26 584.7C1386.51 586.3 1333.03 589.7 1279.75 599.8C1226.37 610 1173.29 627 1119.91 628.7C1066.63 630.3 1013.14 616.7 959.863 604.7C906.48 592.7 853.406 582.3 800.023 561.8C746.743 541.3 693.257 510.7 639.977 503.8C586.594 497 533.52 514 480.137 524.3C426.857 534.7 373.371 538.3 320.091 531.7C266.709 525 213.634 508 160.251 516.5C106.971 525 53.4857 559 26.7429 576L0 593V646Z" fill="#005DE8"/>
<path d="M0 830L26.7429 845.5C53.4857 861 106.971 892 160.251 893.8C213.634 895.7 266.709 868.3 320.091 856.3C373.371 844.3 426.857 847.7 480.137 845.8C533.52 844 586.594 837 639.977 838.7C693.257 840.3 746.743 850.7 800.023 849C853.406 847.3 906.48 833.7 959.863 838.8C1013.14 844 1066.63 868 1119.91 868C1173.29 868 1226.37 844 1279.75 835.5C1333.03 827 1386.51 834 1413.26 837.5L1440 841V654L1413.26 652.3C1386.51 650.7 1333.03 647.3 1279.75 664.5C1226.37 681.7 1173.29 719.3 1119.91 727.8C1066.63 736.3 1013.14 715.7 959.863 696.8C906.48 678 853.406 661 800.023 633.7C746.743 606.3 693.257 568.7 639.977 558.5C586.594 548.3 533.52 565.7 480.137 574.3C426.857 583 373.371 583 320.091 586.3C266.709 589.7 213.634 596.3 160.251 606.5C106.971 616.7 53.4857 630.3 26.7429 637.2L0 644V830Z" fill="#0055D1"/>
<path d="M0 1025H26.7429C53.4857 1025 106.971 1025 160.251 1025C213.634 1025 266.709 1025 320.091 1025C373.371 1025 426.857 1025 480.137 1025C533.52 1025 586.594 1025 639.977 1025C693.257 1025 746.743 1025 800.023 1025C853.406 1025 906.48 1025 959.863 1025C1013.14 1025 1066.63 1025 1119.91 1025C1173.29 1025 1226.37 1025 1279.75 1025C1333.03 1025 1386.51 1025 1413.26 1025H1440V839L1413.26 835.5C1386.51 832 1333.03 825 1279.75 833.5C1226.37 842 1173.29 866 1119.91 866C1066.63 866 1013.14 842 959.863 836.8C906.48 831.7 853.406 845.3 800.023 847C746.743 848.7 693.257 838.3 639.977 836.7C586.594 835 533.52 842 480.137 843.8C426.857 845.7 373.371 842.3 320.091 854.3C266.709 866.3 213.634 893.7 160.251 891.8C106.971 890 53.4857 859 26.7429 843.5L0 828V1025Z" fill="#004CBB"/>
</g>
<defs>
<clipPath id="clip0">
<rect width="1440" height="1024" fill="white"/>
</clipPath>
</defs>
</svg>
